<svg xmlns="http://www.w3.org/2000/svg" fill="none" viewBox="0 0 216 216" id="pomo-get">
  <defs>
    <linearGradient x1=".5" y1="0" x2=".5" y2="1" id="pomo-get_a">
      <stop offset="0%" stop-color="#FF9F73"></stop>
      <stop offset="100%" stop-color="#F88F8F"></stop>
    </linearGradient>
    <linearGradient x1=".5" y1="0" x2=".5" y2="1" id="pomo-get_b">
      <stop offset="0%" stop-color="#00B9A0"></stop>
      <stop offset="100%" stop-color="#00B9A0" stop-opacity=".1"></stop>
    </linearGradient>
    <linearGradient x1=".908" y1=".5" x2="0" y2=".5" id="pomo-get_c">
      <stop offset="0%" stop-color="#FFD800" stop-opacity=".2"></stop>
      <stop offset="100%" stop-color="#FFB000"></stop>
    </linearGradient>
  </defs>
  <g style="mix-blend-mode:passthrough">
    <g style="mix-blend-mode:passthrough">
      <rect x="42.323" y="57.063" width="132" height="117" rx="58.5" fill="url(#pomo-get_a)"></rect>
      <path d="M110.79584927368164,44.26189933544922C110.95114927368164,44.388252335449216,111.09364927368165,44.529226335449216,111.22144927368164,44.68284133544922L117.12114927368164,51.77671133544922C117.65134927368163,52.414141335449216,118.41854927368163,52.81373133544922,119.24984927368163,52.88542133544922L129.83704927368166,53.79833133544922C131.33474927368164,53.92743133544922,132.44294927368165,55.23293133544922,132.31244927368164,56.71423133544922C132.23574927368165,57.58423133544922,131.73704927368163,58.36343133544922,130.97484927368163,58.80433133544922L125.67144927368165,61.87203133544922C124.44714927368165,62.58023133544922,123.86354927368164,64.01883133544922,124.25334927368164,65.36763133544922L125.48994927368165,69.64593133544922C125.96134927368163,71.27693133544922,125.00654927368164,72.97713133544922,123.35744927368164,73.44333133544922C122.77204927368163,73.60883133544922,122.15034927368164,73.60053133544922,121.56964927368165,73.41933133544921L111.62574927368163,70.31703133544922C109.80154927368164,69.74793133544922,107.84444927368165,69.74793133544922,106.02024927368164,70.31703133544922L96.07624927368164,73.41933133544921C94.44057927368164,73.92963133544922,92.69629927368165,73.03183133544923,92.18032927368164,71.41413133544921C91.99715927368165,70.83983133544922,91.98872927368164,70.22493133544921,92.15607927368164,69.64593133544922L93.39261927368165,65.36763133544922C93.78243927368165,64.01883133544922,93.19880927368165,62.58023133544922,91.97449927368164,61.87203133544922L86.67112927368164,58.80433133544922C85.37341177368164,58.05373133544922,84.93667727368164,56.40473133544922,85.69565327368164,55.12123133544922C86.14144427368164,54.36733133544922,86.92926927368164,53.87423133544922,87.80894927368163,53.79833133544922L98.39604927368164,52.88542133544922C99.22744927368164,52.81373133544922,99.99464927368165,52.414141335449216,100.52474927368164,51.77671133544922L106.42454927368163,44.68284133544922C107.51414927368164,43.37274133544922,109.47124927368164,43.184280335449216,110.79584927368164,44.26189933544922Z" fill-rule="evenodd" fill="url(#pomo-get_b)"></path>
    </g>
    <path d="M46.252969482421875,54.705720703124996L38.91967948242188,57.245920703125C37.736359482421875,57.655820703125,36.601441482421876,56.520920703125,37.011339482421874,55.337620703125L39.55155948242187,48.004220703125L37.011339482421874,40.670930703125C36.601441482421876,39.487610703125,37.736359482421875,38.352692703125,38.91967948242188,38.762590703125L46.252969482421875,41.302810703125L53.58636948242187,38.762590703125C54.769669482421875,38.352692703125,55.90456948242188,39.487610703125,55.49466948242188,40.670930703125L52.95446948242187,48.004220703125L55.49466948242188,55.337620703125C55.90456948242188,56.520920703125,54.769669482421875,57.655820703125,53.58636948242187,57.245920703125L46.252969482421875,54.705720703124996Z" fill-rule="evenodd" fill="url(#pomo-get_c)" transform="rotate(45 36 37.751)"></path>
  </g>
</svg>
