<?xml version="1.0" standalone="no"?><!DOCTYPE svg PUBLIC "-//W3C//DTD SVG 1.1//EN" "http://www.w3.org/Graphics/SVG/1.1/DTD/svg11.dtd"><svg height="1024" node-id="1" sillyvg="true" template-height="1024" template-width="1024" version="1.1" viewBox="0 0 1024 1024" width="1024" xmlns="http://www.w3.org/2000/svg" xmlns:xlink="http://www.w3.org/1999/xlink"><defs node-id="104"></defs><g node-id="311"><path d="M 963.40 564.70 L 960.20 564.70 L 960.20 563.60 L 963.40 563.60 Z M 957.00 564.70 L 953.80 564.70 L 953.80 563.60 L 957.00 563.60 Z M 950.60 564.70 L 947.40 564.70 L 947.40 563.60 L 950.60 563.60 Z M 944.20 564.70 L 941.00 564.70 L 941.00 563.60 L 944.20 563.60 Z M 937.80 564.70 L 934.60 564.70 L 934.60 563.60 L 937.80 563.60 Z M 931.40 564.70 L 928.20 564.70 L 928.20 563.60 L 931.40 563.60 Z M 925.00 564.70 L 921.80 564.70 L 921.80 563.60 L 925.00 563.60 Z M 918.60 564.70 L 915.40 564.70 L 915.40 563.60 L 918.60 563.60 Z M 912.20 564.70 L 909.00 564.70 L 909.00 563.60 L 912.20 563.60 Z M 905.80 564.70 L 902.60 564.70 L 902.60 563.60 L 905.80 563.60 Z M 899.40 564.70 L 896.20 564.70 L 896.20 563.60 L 899.40 563.60 Z M 893.00 564.70 L 889.80 564.70 L 889.80 563.60 L 893.00 563.60 Z M 886.60 564.70 L 883.40 564.70 L 883.40 563.60 L 886.60 563.60 Z M 880.20 564.70 L 877.00 564.70 L 877.00 563.60 L 880.20 563.60 Z M 873.80 564.70 L 870.60 564.70 L 870.60 563.60 L 873.80 563.60 Z M 867.40 564.70 L 864.20 564.70 L 864.20 563.60 L 867.40 563.60 Z M 964.50 561.60 L 963.50 561.60 L 963.50 558.40 L 964.50 558.40 Z M 964.50 555.20 L 963.50 555.20 L 963.50 552.00 L 964.50 552.00 Z M 964.50 548.80 L 963.50 548.80 L 963.50 545.60 L 964.50 545.60 Z M 964.50 542.40 L 963.50 542.40 L 963.50 539.20 L 964.50 539.20 Z M 964.50 536.00 L 963.50 536.00 L 963.50 532.80 L 964.50 532.80 Z M 964.50 529.60 L 963.50 529.60 L 963.50 526.40 L 964.50 526.40 Z M 964.50 523.20 L 963.50 523.20 L 963.50 520.00 L 964.50 520.00 Z M 964.50 516.80 L 963.50 516.80 L 963.50 513.70 L 964.50 513.70 Z M 964.50 510.50 L 963.50 510.50 L 963.50 507.30 L 964.50 507.30 Z M 964.50 504.10 L 963.50 504.10 L 963.50 500.90 L 964.50 500.90 Z M 964.50 497.70 L 963.50 497.70 L 963.50 494.50 L 964.50 494.50 Z M 964.50 491.30 L 963.50 491.30 L 963.50 488.10 L 964.50 488.10 Z M 964.50 484.90 L 963.50 484.90 L 963.50 481.70 L 964.50 481.70 Z M 964.50 478.50 L 963.50 478.50 L 963.50 475.30 L 964.50 475.30 Z M 964.50 472.10 L 963.50 472.10 L 963.50 468.90 L 964.50 468.90 Z M 964.50 465.70 L 963.50 465.70 L 963.50 462.50 L 964.50 462.50 Z M 964.50 459.30 L 963.50 459.30 L 963.50 456.10 L 964.50 456.10 Z M 964.50 452.90 L 963.50 452.90 L 963.50 449.70 L 964.50 449.70 Z M 964.50 446.50 L 963.50 446.50 L 963.50 443.30 L 964.50 443.30 Z M 964.50 440.10 L 963.50 440.10 L 963.50 436.90 L 964.50 436.90 Z M 964.50 433.70 L 963.50 433.70 L 963.50 430.50 L 964.50 430.50 Z M 964.50 427.30 L 963.50 427.30 L 963.50 424.10 L 964.50 424.10 Z M 964.50 420.90 L 963.50 420.90 L 963.50 417.70 L 964.50 417.70 Z M 964.50 414.50 L 963.50 414.50 L 963.50 411.30 L 964.50 411.30 Z M 964.50 408.10 L 963.50 408.10 L 963.50 404.90 L 964.50 404.90 Z M 964.50 401.70 L 963.50 401.70 L 963.50 398.50 L 964.50 398.50 Z M 964.50 395.30 L 963.50 395.30 L 963.50 392.10 L 964.50 392.10 Z M 964.50 388.90 L 963.50 388.90 L 963.50 385.80 L 964.50 385.80 Z M 964.50 382.60 L 963.50 382.60 L 963.50 379.40 L 964.50 379.40 Z M 964.50 376.10 L 963.50 376.10 L 963.50 373.00 L 964.50 373.00 Z M 964.50 369.80 L 963.50 369.80 L 963.50 366.60 L 964.50 366.60 Z M 964.50 363.40 L 963.50 363.40 L 963.50 360.20 L 964.50 360.20 Z M 964.50 357.00 L 963.50 357.00 L 963.50 353.80 L 964.50 353.80 Z M 964.50 350.60 L 963.50 350.60 L 963.50 347.40 L 964.50 347.40 Z M 964.50 344.20 L 963.50 344.20 L 963.50 341.00 L 964.50 341.00 Z M 964.50 337.80 L 963.50 337.80 L 963.50 334.60 L 964.50 334.60 Z M 964.50 331.40 L 963.50 331.40 L 963.50 328.20 L 964.50 328.20 Z M 964.50 325.00 L 963.50 325.00 L 963.50 321.80 L 964.50 321.80 Z M 964.50 318.60 L 963.50 318.60 L 963.50 315.40 L 964.50 315.40 Z M 964.50 312.20 L 963.50 312.20 L 963.50 309.00 L 964.50 309.00 Z M 964.50 305.80 L 963.50 305.80 L 963.50 302.60 L 964.50 302.60 Z M 964.50 299.40 L 963.50 299.40 L 963.50 296.20 L 964.50 296.20 Z M 964.50 293.00 L 963.50 293.00 L 963.50 289.80 L 964.50 289.80 Z M 964.50 286.60 L 963.50 286.60 L 963.50 283.40 L 964.50 283.40 Z M 964.50 280.20 L 963.50 280.20 L 963.50 277.00 L 964.50 277.00 Z M 964.50 273.80 L 963.50 273.80 L 963.50 270.60 L 964.50 270.60 Z M 964.50 267.40 L 963.50 267.40 L 963.50 264.20 L 964.50 264.20 Z M 964.50 261.10 L 963.50 261.10 L 963.50 257.90 L 964.50 257.90 Z M 964.50 254.70 L 963.50 254.70 L 963.50 251.50 L 964.50 251.50 Z M 964.50 248.30 L 963.50 248.30 L 963.50 245.10 L 964.50 245.10 Z M 964.50 241.90 L 963.50 241.90 L 963.50 238.70 L 964.50 238.70 Z M 323.40 237.20 L 322.40 237.20 L 322.40 234.30 L 323.40 234.30 Z M 964.50 235.50 L 963.50 235.50 L 963.50 232.30 L 964.50 232.30 Z M 323.40 231.10 L 322.40 231.10 L 322.40 227.90 L 323.40 227.90 Z M 964.50 229.10 L 963.50 229.10 L 963.50 225.90 L 964.50 225.90 Z M 323.40 224.80 L 322.40 224.80 L 322.40 221.60 L 323.40 221.60 Z M 964.50 222.80 L 963.50 222.80 L 963.50 219.60 L 964.50 219.60 Z M 323.40 218.40 L 322.40 218.40 L 322.40 215.20 L 323.40 215.20 Z M 964.50 216.40 L 963.50 216.40 L 963.50 213.20 L 964.50 213.20 Z M 323.40 212.10 L 322.40 212.10 L 322.40 208.90 L 323.40 208.90 Z M 964.50 210.10 L 963.50 210.10 L 963.50 206.90 L 964.50 206.90 Z M 323.40 205.70 L 322.40 205.70 L 322.40 202.50 L 323.40 202.50 Z M 964.50 203.70 L 963.50 203.70 L 963.50 200.50 L 964.50 200.50 Z M 323.40 199.30 L 322.40 199.30 L 322.40 196.10 L 323.40 196.10 Z M 964.50 197.30 L 963.50 197.30 L 963.50 194.10 L 964.50 194.10 Z M 323.40 193.00 L 322.40 193.00 L 322.40 189.80 L 323.40 189.80 Z M 964.50 191.00 L 963.50 191.00 L 963.50 187.80 L 964.50 187.80 Z M 323.40 186.60 L 322.40 186.60 L 322.40 183.40 L 323.40 183.40 Z M 964.00 184.60 L 961.30 184.60 L 961.30 183.60 L 964.50 183.60 L 964.50 184.60 Z M 958.10 184.60 L 954.90 184.60 L 954.90 183.60 L 958.10 183.60 Z M 951.70 184.60 L 948.50 184.60 L 948.50 183.60 L 951.70 183.60 Z M 945.30 184.60 L 942.10 184.60 L 942.10 183.60 L 945.30 183.60 Z M 938.90 184.60 L 935.70 184.60 L 935.70 183.60 L 938.90 183.60 Z M 932.50 184.60 L 929.30 184.60 L 929.30 183.60 L 932.50 183.60 Z M 926.10 184.60 L 922.90 184.60 L 922.90 183.60 L 926.10 183.60 Z M 919.70 184.60 L 916.50 184.60 L 916.50 183.60 L 919.70 183.60 Z M 913.30 184.60 L 910.10 184.60 L 910.10 183.60 L 913.30 183.60 Z M 906.90 184.60 L 903.70 184.60 L 903.70 183.60 L 906.90 183.60 Z M 900.50 184.60 L 897.30 184.60 L 897.30 183.60 L 900.50 183.60 Z M 894.10 184.60 L 891.00 184.60 L 891.00 183.60 L 894.20 183.60 Z M 887.80 184.60 L 884.60 184.60 L 884.60 183.60 L 887.80 183.60 Z M 881.40 184.60 L 878.20 184.60 L 878.20 183.60 L 881.40 183.60 Z M 875.00 184.60 L 871.80 184.60 L 871.80 183.60 L 875.00 183.60 Z M 868.60 184.60 L 865.40 184.60 L 865.40 183.60 L 868.60 183.60 Z M 862.20 184.60 L 859.00 184.60 L 859.00 183.60 L 862.20 183.60 Z M 855.80 184.60 L 852.60 184.60 L 852.60 183.60 L 855.80 183.60 Z M 849.40 184.60 L 846.20 184.60 L 846.20 183.60 L 849.40 183.60 Z M 843.00 184.60 L 839.80 184.60 L 839.80 183.60 L 843.00 183.60 Z M 836.60 184.60 L 833.40 184.60 L 833.40 183.60 L 836.60 183.60 Z M 830.20 184.60 L 827.00 184.60 L 827.00 183.60 L 830.20 183.60 Z M 823.80 184.60 L 820.60 184.60 L 820.60 183.60 L 823.80 183.60 Z M 817.40 184.60 L 814.20 184.60 L 814.20 183.60 L 817.40 183.60 Z M 811.00 184.60 L 807.80 184.60 L 807.80 183.60 L 811.00 183.60 Z M 804.60 184.60 L 801.40 184.60 L 801.40 183.60 L 804.60 183.60 Z M 798.20 184.60 L 795.00 184.60 L 795.00 183.60 L 798.20 183.60 Z M 791.80 184.60 L 788.60 184.60 L 788.60 183.60 L 791.80 183.60 Z M 785.40 184.60 L 782.20 184.60 L 782.20 183.60 L 785.40 183.60 Z M 779.00 184.60 L 775.80 184.60 L 775.80 183.60 L 779.00 183.60 Z M 772.60 184.60 L 769.40 184.60 L 769.40 183.60 L 772.60 183.60 Z M 766.30 184.60 L 763.10 184.60 L 763.10 183.60 L 766.30 183.60 Z M 759.80 184.60 L 756.60 184.60 L 756.60 183.60 L 759.80 183.60 Z M 753.50 184.60 L 750.30 184.60 L 750.30 183.60 L 753.50 183.60 Z M 747.10 184.60 L 743.90 184.60 L 743.90 183.60 L 747.10 183.60 Z M 740.70 184.60 L 737.50 184.60 L 737.50 183.60 L 740.70 183.60 Z M 734.30 184.60 L 731.10 184.60 L 731.10 183.60 L 734.30 183.60 Z M 727.90 184.60 L 724.70 184.60 L 724.70 183.60 L 727.90 183.60 Z M 721.50 184.60 L 718.30 184.60 L 718.30 183.60 L 721.50 183.60 Z M 715.10 184.60 L 711.90 184.60 L 711.90 183.60 L 715.10 183.60 Z M 708.70 184.60 L 705.50 184.60 L 705.50 183.60 L 708.70 183.60 Z M 702.30 184.60 L 699.10 184.60 L 699.10 183.60 L 702.30 183.60 Z M 695.90 184.60 L 692.70 184.60 L 692.70 183.60 L 695.90 183.60 Z M 689.50 184.60 L 686.30 184.60 L 686.30 183.60 L 689.50 183.60 Z M 683.10 184.60 L 679.90 184.60 L 679.90 183.60 L 683.10 183.60 Z M 676.70 184.60 L 673.50 184.60 L 673.50 183.60 L 676.70 183.60 Z M 670.30 184.60 L 667.10 184.60 L 667.10 183.60 L 670.30 183.60 Z M 663.90 184.60 L 660.70 184.60 L 660.70 183.60 L 663.90 183.60 Z M 657.50 184.60 L 656.50 184.60 L 656.50 181.40 L 657.60 181.40 Z M 323.40 180.00 L 322.40 180.00 L 322.40 176.80 L 323.40 176.80 Z M 657.60 178.00 L 656.50 178.00 L 656.50 174.80 L 657.60 174.80 Z M 323.40 173.60 L 322.40 173.60 L 322.40 170.40 L 323.40 170.40 Z M 657.60 171.60 L 656.50 171.60 L 656.50 168.40 L 657.60 168.40 Z M 323.40 167.20 L 322.40 167.20 L 322.40 164.00 L 323.40 164.00 Z M 657.60 165.20 L 656.50 165.20 L 656.50 162.00 L 657.60 162.00 Z M 323.40 160.90 L 322.40 160.90 L 322.40 157.70 L 323.40 157.70 Z M 657.60 158.90 L 656.50 158.90 L 656.50 155.70 L 657.60 155.70 Z M 323.40 154.50 L 322.40 154.50 L 322.40 151.30 L 323.40 151.30 Z M 657.60 152.50 L 656.50 152.50 L 656.50 149.30 L 657.60 149.30 Z M 323.40 148.00 L 322.40 148.00 L 322.40 144.80 L 323.40 144.80 Z M 657.60 146.00 L 656.50 146.00 L 656.50 142.80 L 657.60 142.80 Z M 323.40 141.60 L 322.40 141.60 L 322.40 138.40 L 323.40 138.40 Z M 657.60 139.60 L 656.50 139.60 L 656.50 136.40 L 657.60 136.40 Z M 323.40 135.20 L 322.40 135.20 L 322.40 132.00 L 323.40 132.00 Z M 657.60 133.20 L 656.50 133.20 L 656.50 130.00 L 657.60 130.00 Z M 323.40 128.90 L 322.40 128.90 L 322.40 125.70 L 323.40 125.70 Z M 657.60 126.90 L 656.50 126.90 L 656.50 123.70 L 657.60 123.70 Z M 323.40 122.40 L 322.40 122.40 L 322.40 119.20 L 323.40 119.20 Z M 657.60 120.40 L 656.50 120.40 L 656.50 117.20 L 657.60 117.20 Z M 323.40 116.00 L 322.40 116.00 L 322.40 112.80 L 323.40 112.80 Z M 657.60 114.00 L 656.50 114.00 L 656.50 110.80 L 657.60 110.80 Z M 323.40 109.60 L 322.40 109.60 L 322.40 106.40 L 323.40 106.40 Z M 657.60 107.60 L 656.50 107.60 L 656.50 104.40 L 657.60 104.40 Z M 323.40 103.20 L 322.40 103.20 L 322.40 100.00 L 323.40 100.00 Z M 657.60 101.20 L 656.50 101.20 L 656.50 98.00 L 657.60 98.00 Z M 323.40 96.80 L 322.40 96.80 L 322.40 93.60 L 323.40 93.60 Z M 657.60 94.80 L 656.50 94.80 L 656.50 91.80 L 656.80 91.80 L 656.80 91.30 L 657.60 91.30 Z M 653.60 92.40 L 650.40 92.40 L 650.40 91.30 L 653.60 91.30 Z M 647.20 92.40 L 644.00 92.40 L 644.00 91.30 L 647.20 91.30 Z M 640.80 92.40 L 637.60 92.40 L 637.60 91.30 L 640.80 91.30 Z M 634.40 92.40 L 631.20 92.40 L 631.20 91.30 L 634.40 91.30 Z M 628.00 92.40 L 624.90 92.40 L 624.90 91.30 L 628.00 91.30 Z M 621.70 92.40 L 618.50 92.40 L 618.50 91.30 L 621.70 91.30 Z M 615.30 92.40 L 612.10 92.40 L 612.10 91.30 L 615.30 91.30 Z M 608.90 92.40 L 605.70 92.40 L 605.70 91.30 L 608.90 91.30 Z M 602.50 92.40 L 599.30 92.40 L 599.30 91.30 L 602.50 91.30 Z M 596.10 92.40 L 592.90 92.40 L 592.90 91.30 L 596.10 91.30 Z M 589.70 92.40 L 586.50 92.40 L 586.50 91.30 L 589.70 91.30 Z M 583.30 92.40 L 580.10 92.40 L 580.10 91.30 L 583.30 91.30 Z M 576.90 92.40 L 573.70 92.40 L 573.70 91.30 L 576.90 91.30 Z M 570.50 92.40 L 567.30 92.40 L 567.30 91.30 L 570.50 91.30 Z M 564.10 92.40 L 560.90 92.40 L 560.90 91.30 L 564.10 91.30 Z M 557.70 92.40 L 554.50 92.40 L 554.50 91.30 L 557.70 91.30 Z M 551.30 92.40 L 548.10 92.40 L 548.10 91.30 L 551.30 91.30 Z M 544.90 92.40 L 541.70 92.40 L 541.70 91.30 L 544.90 91.30 Z M 538.50 92.40 L 535.30 92.40 L 535.30 91.30 L 538.50 91.30 Z M 532.10 92.40 L 528.90 92.40 L 528.90 91.30 L 532.10 91.30 Z M 525.70 92.40 L 522.50 92.40 L 522.50 91.30 L 525.70 91.30 Z M 519.30 92.40 L 516.10 92.40 L 516.10 91.30 L 519.30 91.30 Z M 512.90 92.40 L 509.70 92.40 L 509.70 91.30 L 512.90 91.30 Z M 506.50 92.40 L 503.30 92.40 L 503.30 91.30 L 506.50 91.30 Z M 500.10 92.40 L 497.00 92.40 L 497.00 91.30 L 500.20 91.30 Z M 493.80 92.40 L 490.60 92.40 L 490.60 91.30 L 493.80 91.30 Z M 487.40 92.40 L 484.20 92.40 L 484.20 91.30 L 487.40 91.30 Z M 481.00 92.40 L 477.80 92.40 L 477.80 91.30 L 481.00 91.30 Z M 474.60 92.40 L 471.40 92.40 L 471.40 91.30 L 474.60 91.30 Z M 468.20 92.40 L 465.00 92.40 L 465.00 91.30 L 468.20 91.30 Z M 461.80 92.40 L 458.60 92.40 L 458.60 91.30 L 461.80 91.30 Z M 455.40 92.40 L 452.20 92.40 L 452.20 91.30 L 455.40 91.30 Z M 449.00 92.40 L 445.80 92.40 L 445.80 91.30 L 449.00 91.30 Z M 442.60 92.40 L 439.40 92.40 L 439.40 91.30 L 442.60 91.30 Z M 436.20 92.40 L 433.00 92.40 L 433.00 91.30 L 436.20 91.30 Z M 429.80 92.40 L 426.60 92.40 L 426.60 91.30 L 429.80 91.30 Z M 423.40 92.40 L 420.20 92.40 L 420.20 91.30 L 423.40 91.30 Z M 417.00 92.40 L 413.80 92.40 L 413.80 91.30 L 417.00 91.30 Z M 410.60 92.40 L 407.40 92.40 L 407.40 91.30 L 410.60 91.30 Z M 404.20 92.40 L 401.00 92.40 L 401.00 91.30 L 404.20 91.30 Z M 397.80 92.40 L 394.60 92.40 L 394.60 91.30 L 397.80 91.30 Z M 391.40 92.40 L 388.20 92.40 L 388.20 91.30 L 391.40 91.30 Z M 385.00 92.40 L 381.80 92.40 L 381.80 91.30 L 385.00 91.30 Z M 378.60 92.40 L 375.40 92.40 L 375.40 91.30 L 378.60 91.30 Z M 372.30 92.40 L 369.00 92.40 L 369.00 91.30 L 372.30 91.30 Z M 365.90 92.40 L 362.70 92.40 L 362.70 91.30 L 365.90 91.30 Z M 359.50 92.40 L 356.30 92.40 L 356.30 91.30 L 359.50 91.30 Z M 353.10 92.40 L 349.90 92.40 L 349.90 91.30 L 353.10 91.30 Z M 346.70 92.40 L 343.50 92.40 L 343.50 91.30 L 346.70 91.30 Z M 340.30 92.40 L 337.10 92.40 L 337.10 91.30 L 340.30 91.30 Z M 333.90 92.40 L 330.70 92.40 L 330.70 91.30 L 333.90 91.30 Z M 327.50 92.40 L 324.30 92.40 L 324.30 91.30 L 327.50 91.30 Z" fill="#0024a8" fill-rule="nonzero" group-id="1" node-id="109" stroke="none" target-height="473.40002" target-width="642.1" target-x="322.4" target-y="91.3"></path><path d="M 451.10 783.80 L 466.10 777.20 L 491.70 767.10 L 503.90 762.90 L 515.00 759.60 L 525.10 757.00 L 535.20 755.00 L 544.60 753.70 L 553.30 753.10 L 562.10 753.00 L 570.50 753.50 L 578.70 754.60 L 586.70 756.20 L 594.90 758.30 L 611.20 764.00 L 628.80 771.60 L 642.50 778.20 L 692.50 803.30 L 700.90 807.10 L 709.20 810.50 L 717.30 813.30 L 725.20 815.70 L 733.00 817.60 L 743.00 819.40 L 752.70 820.60 L 762.20 821.20 L 771.40 821.10 L 780.70 820.50 L 789.80 819.40 L 798.50 817.70 L 807.00 815.60 L 815.50 812.90 L 823.60 809.90 L 831.40 806.50 L 838.90 802.60 L 846.30 798.40 L 853.30 793.90 L 859.90 789.10 L 866.20 784.00 L 872.30 778.60 L 877.90 773.00 L 883.20 767.20 L 888.00 761.30 L 892.60 755.10 L 896.70 748.90 L 900.30 742.60 L 903.50 736.30 L 906.40 729.70 L 908.70 723.30 L 910.50 716.90 L 911.90 710.60 L 914.10 695.90 L 915.80 681.40 L 917.00 667.10 L 917.60 653.00 L 917.70 638.90 L 917.30 624.80 L 916.40 610.90 L 915.10 597.10 L 913.30 583.60 L 911.00 570.30 L 908.20 556.90 L 905.10 543.80 L 901.50 531.00 L 897.60 518.40 L 893.20 506.00 L 888.40 493.70 L 883.30 481.70 L 877.80 470.10 L 872.00 458.70 L 865.90 447.60 L 859.40 436.60 L 852.50 426.00 L 845.50 415.80 L 838.10 405.90 L 830.60 396.40 L 822.60 387.10 L 814.40 378.20 L 806.00 369.70 L 797.50 361.60 L 788.70 354.00 L 779.60 346.50 L 770.40 339.60 L 761.00 333.20 L 751.50 327.10 L 741.90 321.60 L 732.00 316.40 L 722.00 311.70 L 712.00 307.60 L 701.80 303.90 L 691.60 300.80 L 682.80 298.50 L 673.20 296.60 L 662.90 295.00 L 652.50 293.90 L 641.70 293.30 L 630.50 293.00 L 619.20 293.30 L 607.80 294.10 L 596.20 295.30 L 584.60 297.10 L 573.20 299.50 L 561.80 302.40 L 553.40 305.00 L 537.00 311.10 L 529.10 314.70 L 521.40 318.70 L 513.90 323.10 L 506.80 327.80 L 499.90 332.90 L 493.30 338.30 L 487.20 344.20 L 481.40 350.50 L 475.90 357.20 L 472.00 362.90 L 468.30 368.80 L 464.90 375.00 L 461.80 381.50 L 459.00 388.40 L 456.70 395.30 L 454.70 402.60 L 453.10 410.30 L 451.80 418.40 L 451.00 426.90 L 450.60 435.20 L 450.80 451.30 L 453.00 485.80 L 453.30 496.30 L 453.20 503.30 L 452.60 509.90 L 451.60 516.10 L 450.50 520.70 L 449.00 525.10 L 447.20 529.30 L 444.90 533.30 L 442.30 537.10 L 439.20 540.70 L 435.40 544.20 L 431.00 547.60 L 426.50 550.50 L 421.20 553.20 L 414.90 555.90 L 407.70 558.40 L 399.90 560.40 L 391.70 562.00 L 383.20 563.10 L 365.90 564.10 L 343.40 564.00 L 316.10 563.30 L 293.70 563.60 L 276.60 565.20 L 268.20 566.70 L 260.20 568.70 L 252.60 571.30 L 247.00 573.70 L 241.60 576.60 L 236.50 579.80 L 231.50 583.60 L 227.00 587.70 L 222.60 592.40 L 218.40 597.80 L 214.50 603.90 L 211.10 610.20 L 207.90 617.20 L 205.00 625.30 L 202.30 634.30 L 200.70 641.50 L 199.70 648.60 L 199.20 655.60 L 199.30 662.50 L 199.80 669.30 L 200.90 676.10 L 202.40 682.70 L 204.30 689.30 L 206.70 695.80 L 209.60 702.20 L 213.70 709.90 L 218.40 717.40 L 223.70 724.70 L 229.60 731.90 L 235.90 738.70 L 242.70 745.10 L 250.00 751.40 L 257.80 757.40 L 265.90 762.90 L 274.30 768.10 L 283.00 773.00 L 292.20 777.50 L 301.50 781.60 L 311.00 785.30 L 320.80 788.50 L 330.70 791.30 L 340.80 793.70 L 350.90 795.50 L 361.10 796.80 L 371.40 797.70 L 381.70 798.00 L 392.00 797.70 L 402.10 796.90 L 412.20 795.50 L 420.20 794.00 L 428.10 792.10 L 435.90 789.70 L 443.60 787.00 L 451.10 783.80 Z" fill="#f0f8ff" fill-rule="nonzero" group-id="1" node-id="111" stroke="none" target-height="528.2" target-width="718.5" target-x="199.2" target-y="293"></path><path d="M 553.00 450.20 L 552.80 452.80 L 551.50 457.90 L 548.90 462.40 L 547.10 464.40 L 545.10 466.20 L 540.60 468.80 L 535.60 470.10 L 532.90 470.30 L 90.90 470.30 L 88.20 470.10 L 83.20 468.80 L 78.70 466.20 L 76.70 464.40 L 74.90 462.40 L 72.30 457.90 L 70.90 452.80 L 70.80 450.20 L 70.80 173.00 L 71.40 167.80 L 73.40 162.90 L 76.70 158.80 L 80.80 155.50 L 85.70 153.50 L 90.90 152.90 L 532.90 152.90 L 535.60 153.00 L 540.60 154.40 L 545.10 157.00 L 547.10 158.80 L 548.90 160.80 L 551.50 165.30 L 552.80 170.30 L 553.00 173.00 Z" fill="#d7e7ff" fill-rule="nonzero" group-id="1" node-id="113" stroke="none" target-height="317.4" target-width="482.2" target-x="70.8" target-y="152.9"></path><path d="M 532.90 152.90 L 88.20 153.00 L 85.70 153.50 L 80.80 155.50 L 76.70 158.80 L 73.40 162.90 L 71.40 167.80 L 70.80 173.00 L 70.80 210.40 L 553.00 210.40 L 553.00 173.00 L 552.80 170.30 L 551.50 165.30 L 548.90 160.80 L 545.10 157.00 L 542.90 155.50 L 538.10 153.50 L 532.90 152.90 Z" fill="#94b8ed" fill-rule="nonzero" group-id="1" node-id="115" stroke="none" target-height="57.5" target-width="482.2" target-x="70.8" target-y="152.9"></path><path d="M 119.60 181.80 L 119.00 185.30 L 117.20 188.30 L 114.60 190.40 L 113.10 191.20 L 109.60 191.80 L 106.10 191.20 L 103.10 189.40 L 100.90 186.80 L 99.70 183.60 L 99.70 180.00 L 100.20 178.30 L 101.90 175.30 L 104.50 173.20 L 106.10 172.40 L 109.60 171.80 L 113.10 172.40 L 114.60 173.20 L 117.20 175.30 L 119.00 178.30 L 119.60 181.80 Z" fill="#969924" fill-rule="nonzero" group-id="1" node-id="117" stroke="none" target-height="20" target-width="19.900002" target-x="99.7" target-y="171.8"></path><path d="M 144.80 181.80 L 144.20 185.30 L 143.50 186.80 L 141.30 189.40 L 138.30 191.20 L 134.80 191.80 L 131.30 191.20 L 128.40 189.40 L 126.20 186.80 L 125.00 183.60 L 125.00 180.00 L 125.50 178.30 L 127.20 175.30 L 129.80 173.20 L 131.30 172.40 L 134.80 171.80 L 138.30 172.40 L 139.90 173.20 L 142.50 175.30 L 144.20 178.30 L 144.80 181.80 Z" fill="#fec000" fill-rule="nonzero" group-id="1" node-id="119" stroke="none" target-height="20" target-width="19.800003" target-x="125" target-y="171.8"></path><path d="M 169.20 181.80 L 168.60 185.30 L 166.80 188.30 L 164.20 190.40 L 162.70 191.20 L 159.20 191.80 L 155.70 191.20 L 152.70 189.40 L 150.60 186.80 L 149.40 183.60 L 149.40 180.00 L 149.80 178.30 L 151.60 175.30 L 154.20 173.20 L 155.70 172.40 L 159.20 171.80 L 162.70 172.40 L 165.70 174.20 L 167.80 176.80 L 168.60 178.30 L 169.20 181.80 Z" fill="#dc4026" fill-rule="nonzero" group-id="1" node-id="121" stroke="none" target-height="20" target-width="19.800003" target-x="149.4" target-y="171.8"></path><path d="M 961.90 902.50 L 961.60 903.20 L 960.60 904.10 L 958.40 905.10 L 954.10 906.40 L 947.10 907.90 L 937.00 909.50 L 923.00 911.20 L 904.00 913.00 L 874.10 915.20 L 835.00 917.40 L 769.00 920.00 L 694.50 921.90 L 613.60 923.10 L 528.70 923.60 L 443.80 923.10 L 362.90 921.90 L 288.30 920.00 L 222.30 917.40 L 183.20 915.20 L 153.30 913.00 L 134.40 911.20 L 120.30 909.50 L 110.30 907.90 L 103.20 906.40 L 99.00 905.10 L 96.70 904.10 L 95.70 903.20 L 95.50 902.50 L 95.70 901.70 L 96.70 900.80 L 99.00 899.80 L 103.20 898.50 L 110.30 897.00 L 120.30 895.40 L 134.40 893.70 L 153.30 891.90 L 183.20 889.70 L 222.30 887.50 L 288.30 884.90 L 362.90 883.00 L 443.80 881.80 L 528.70 881.40 L 613.60 881.80 L 694.50 883.00 L 769.00 884.90 L 835.00 887.50 L 874.10 889.70 L 904.00 891.90 L 923.00 893.70 L 937.00 895.40 L 947.10 897.00 L 954.10 898.50 L 958.40 899.80 L 960.60 900.80 L 961.60 901.70 L 961.90 902.50 Z" fill="#d6e6f2" fill-rule="nonzero" group-id="1" node-id="123" stroke="none" target-height="42.19995" target-width="866.4" target-x="95.5" target-y="881.4"></path><path d="M 658.20 635.80 L 649.40 635.50 L 640.70 634.70 L 632.20 633.40 L 623.90 631.60 L 615.70 629.30 L 607.60 626.60 L 599.80 623.40 L 592.20 619.80 L 584.70 615.70 L 577.50 611.20 L 570.50 606.40 L 563.80 601.10 L 557.30 595.50 L 551.10 589.50 L 545.10 583.10 L 539.50 576.50 L 534.20 569.50 L 529.20 562.30 L 524.50 554.70 L 520.10 546.70 L 516.10 538.70 L 512.50 530.40 L 509.30 521.80 L 506.40 512.90 L 503.90 503.80 L 501.90 494.70 L 500.30 485.30 L 499.20 475.80 L 498.50 466.00 L 498.20 456.00 L 498.50 445.90 L 499.20 436.00 L 817.20 436.00 L 817.90 445.90 L 818.20 456.00 L 817.90 466.00 L 817.20 475.80 L 816.10 485.30 L 814.50 494.70 L 812.50 503.80 L 810.00 512.90 L 807.10 521.80 L 803.90 530.40 L 800.30 538.70 L 796.40 546.70 L 792.00 554.70 L 787.30 562.30 L 782.30 569.50 L 777.00 576.50 L 771.30 583.10 L 765.40 589.50 L 759.10 595.50 L 752.70 601.10 L 746.00 606.40 L 739.00 611.20 L 731.70 615.70 L 724.30 619.80 L 716.70 623.40 L 708.80 626.60 L 700.80 629.30 L 692.60 631.60 L 684.30 633.40 L 675.80 634.70 L 667.10 635.50 L 658.20 635.80 Z" fill="#b3d0ff" fill-rule="nonzero" group-id="1" node-id="125" stroke="none" target-height="199.79999" target-width="320" target-x="498.2" target-y="436"></path><path d="M 656.90 612.60 L 648.60 612.20 L 640.50 611.40 L 632.80 609.90 L 625.20 608.00 L 617.80 605.40 L 610.80 602.50 L 604.10 599.10 L 597.80 595.20 L 591.70 590.90 L 586.10 586.20 L 580.90 581.20 L 576.10 575.80 L 571.70 570.00 L 567.90 564.00 L 564.70 557.70 L 561.90 551.10 L 560.10 545.70 L 558.70 540.10 L 557.60 534.50 L 557.00 528.70 L 556.80 522.70 L 557.40 512.70 L 756.40 512.70 L 757.10 522.70 L 756.80 528.70 L 756.20 534.50 L 755.20 540.10 L 753.70 545.70 L 751.90 551.10 L 749.10 557.70 L 745.90 564.00 L 742.00 570.00 L 737.70 575.80 L 732.90 581.20 L 727.70 586.20 L 722.10 590.90 L 716.00 595.20 L 709.70 599.10 L 703.00 602.50 L 695.90 605.40 L 688.50 608.00 L 681.00 609.90 L 673.20 611.40 L 665.20 612.20 L 656.90 612.60 Z" fill="#94b8ed" fill-rule="nonzero" group-id="1" node-id="127" stroke="none" target-height="99.89996" target-width="200.29999" target-x="556.8" target-y="512.7"></path><g node-id="312"><path d="M 832.00 454.60 L 483.70 454.40 L 482.80 453.50 L 482.70 452.80 L 482.70 384.60 L 482.80 383.90 L 483.70 382.90 L 832.70 382.90 L 833.60 383.90 L 833.80 384.60 L 833.80 452.80 L 833.20 454.10 L 832.00 454.60 Z" fill="#4c6ef4" fill-rule="nonzero" group-id="1,2" node-id="131" stroke="none" target-height="71.70001" target-width="351.09998" target-x="482.7" target-y="382.9"></path></g><path d="M 656.00 635.80 L 647.10 636.20 L 638.50 637.10 L 630.00 638.50 L 621.70 640.40 L 613.50 642.80 L 605.50 645.60 L 597.70 648.90 L 590.10 652.60 L 582.70 656.80 L 575.50 661.40 L 568.60 666.30 L 561.90 671.70 L 555.50 677.40 L 549.30 683.40 L 543.40 689.90 L 537.90 696.60 L 532.60 703.60 L 527.70 711.00 L 523.10 718.60 L 518.80 726.60 L 514.90 734.70 L 511.40 743.10 L 508.20 751.70 L 505.50 760.60 L 503.10 769.70 L 501.20 778.90 L 499.70 788.30 L 498.60 797.80 L 498.00 807.60 L 497.90 817.60 L 498.20 827.70 L 499.10 837.60 L 817.00 833.50 L 817.60 823.60 L 817.80 813.50 L 817.50 803.50 L 816.60 793.70 L 815.40 784.20 L 813.70 774.90 L 811.60 765.70 L 809.00 756.70 L 806.10 747.80 L 802.80 739.30 L 799.10 731.00 L 795.00 723.00 L 790.60 715.10 L 785.80 707.60 L 780.70 700.40 L 775.30 693.50 L 769.70 687.00 L 763.60 680.70 L 757.30 674.70 L 750.80 669.20 L 744.00 664.10 L 737.00 659.30 L 729.70 654.90 L 722.20 650.90 L 714.60 647.40 L 706.70 644.30 L 698.60 641.70 L 690.40 639.50 L 682.10 637.80 L 673.60 636.60 L 664.90 636.00 L 656.00 635.80 Z" fill="#b3d0ff" fill-rule="nonzero" group-id="1" node-id="134" stroke="none" target-height="201.79999" target-width="319.9" target-x="497.9" target-y="635.8"></path><path d="M 656.50 680.40 L 647.90 680.90 L 639.50 681.90 L 631.40 683.60 L 623.50 685.80 L 615.70 688.70 L 608.20 692.00 L 601.00 695.90 L 594.00 700.30 L 587.30 705.10 L 580.90 710.40 L 574.80 716.20 L 569.00 722.40 L 563.70 729.00 L 558.70 735.90 L 554.10 743.20 L 549.90 750.90 L 546.20 758.90 L 542.90 767.10 L 540.10 775.60 L 537.70 784.40 L 535.90 793.40 L 534.60 802.50 L 533.90 811.90 L 533.70 821.60 L 534.60 837.20 L 781.50 834.00 L 782.10 818.40 L 781.70 808.70 L 780.80 799.40 L 779.30 790.20 L 777.30 781.40 L 774.80 772.60 L 771.80 764.10 L 768.30 756.00 L 764.40 748.20 L 760.10 740.60 L 755.30 733.40 L 750.20 726.60 L 744.70 720.20 L 738.80 714.10 L 732.60 708.50 L 726.20 703.40 L 719.40 698.70 L 712.30 694.40 L 704.90 690.80 L 697.40 687.60 L 689.50 685.00 L 681.60 682.90 L 673.40 681.50 L 665.00 680.60 L 656.50 680.40 Z" fill="#83abdb" fill-rule="nonzero" group-id="1" node-id="136" stroke="none" target-height="156.79999" target-width="248.39996" target-x="533.7" target-y="680.4"></path><path d="M 484.10 819.20 L 831.60 814.70 L 832.90 815.30 L 833.40 816.70 L 834.10 884.50 L 834.00 885.30 L 833.10 886.30 L 484.80 891.00 L 483.50 890.40 L 483.00 889.10 L 482.40 821.20 L 482.80 819.90 L 484.10 819.20 Z" fill="#4c6ef4" fill-rule="nonzero" group-id="1" node-id="138" stroke="none" target-height="76.29999" target-width="351.69998" target-x="482.4" target-y="814.7"></path><path d="M 220.90 351.50 L 436.60 351.50 L 437.70 351.70 L 438.70 352.40 L 439.30 353.30 L 439.60 354.50 L 439.60 633.50 L 439.30 634.70 L 438.70 635.70 L 437.70 636.30 L 436.60 636.50 L 220.90 636.50 L 219.70 636.30 L 218.80 635.70 L 218.20 634.70 L 217.90 633.50 L 217.90 354.50 L 218.20 353.30 L 218.80 352.40 L 219.70 351.70 L 220.90 351.50 Z" fill="#83abdb" fill-rule="nonzero" group-id="1" node-id="140" stroke="none" target-height="285" target-width="221.70001" target-x="217.9" target-y="351.5"></path><path d="M 237.50 415.10 L 295.80 415.10 L 295.80 473.40 L 237.50 473.40 Z" fill="#cfe0ff" fill-rule="nonzero" group-id="1" node-id="142" stroke="none" target-height="58.299988" target-width="58.299988" target-x="237.5" target-y="415.1"></path><path d="M 302.80 415.10 L 361.10 415.10 L 361.10 473.40 L 302.80 473.40 Z" fill="#cfe0ff" fill-rule="nonzero" group-id="1" node-id="144" stroke="none" target-height="58.299988" target-width="58.30002" target-x="302.8" target-y="415.1"></path><path d="M 367.10 415.10 L 425.40 415.10 L 425.40 473.40 L 367.10 473.40 Z" fill="#cfe0ff" fill-rule="nonzero" group-id="1" node-id="146" stroke="none" target-height="58.299988" target-width="58.299988" target-x="367.1" target-y="415.1"></path><path d="M 237.50 482.70 L 295.80 482.70 L 295.80 540.90 L 237.50 540.90 Z" fill="#cfe0ff" fill-rule="nonzero" group-id="1" node-id="148" stroke="none" target-height="58.200012" target-width="58.299988" target-x="237.5" target-y="482.7"></path><path d="M 302.80 482.70 L 361.10 482.70 L 361.10 540.90 L 302.80 540.90 Z" fill="#cfe0ff" fill-rule="nonzero" group-id="1" node-id="150" stroke="none" target-height="58.200012" target-width="58.30002" target-x="302.8" target-y="482.7"></path><path d="M 367.10 482.70 L 425.40 482.70 L 425.40 540.90 L 367.10 540.90 Z" fill="#cfe0ff" fill-rule="nonzero" group-id="1" node-id="152" stroke="none" target-height="58.200012" target-width="58.299988" target-x="367.1" target-y="482.7"></path><path d="M 237.50 550.20 L 295.80 550.20 L 295.80 608.50 L 237.50 608.50 Z" fill="#cfe0ff" fill-rule="nonzero" group-id="1" node-id="154" stroke="none" target-height="58.299988" target-width="58.299988" target-x="237.5" target-y="550.2"></path><path d="M 302.80 550.20 L 361.10 550.20 L 361.10 608.50 L 302.80 608.50 Z" fill="#cfe0ff" fill-rule="nonzero" group-id="1" node-id="156" stroke="none" target-height="58.299988" target-width="58.30002" target-x="302.8" target-y="550.2"></path><path d="M 366.10 550.20 L 424.40 550.20 L 424.40 608.50 L 366.10 608.50 Z" fill="#cfe0ff" fill-rule="nonzero" group-id="1" node-id="158" stroke="none" target-height="58.299988" target-width="58.299988" target-x="366.1" target-y="550.2"></path><path d="M 236.50 388.50 L 424.40 388.50 L 424.40 401.70 L 236.50 401.70 Z" fill="#fec000" fill-rule="nonzero" group-id="1" node-id="160" stroke="none" target-height="13.200012" target-width="187.9" target-x="236.5" target-y="388.5"></path><path d="M 253.50 430.30 L 253.30 425.20 L 250.50 434.80 L 248.30 434.80 L 245.80 425.20 L 245.30 435.00 L 242.70 435.00 L 243.50 422.60 L 247.30 422.60 L 249.50 431.20 L 252.00 422.60 L 255.70 422.60 L 256.40 435.00 L 253.60 435.00 Z" fill="#ffffff" fill-rule="nonzero" group-id="1" node-id="162" stroke="none" target-height="12.399994" target-width="13.699997" target-x="242.7" target-y="422.6"></path><path d="M 270.00 428.70 L 269.80 430.70 L 269.20 432.30 L 268.30 433.50 L 267.10 434.40 L 265.70 435.00 L 263.90 435.20 L 262.20 435.00 L 260.80 434.40 L 259.60 433.40 L 258.30 430.70 L 258.10 428.90 L 258.30 427.10 L 258.80 425.60 L 259.70 424.30 L 260.90 423.30 L 262.30 422.70 L 264.10 422.40 L 265.90 422.70 L 267.30 423.30 L 269.30 425.50 L 270.00 428.70 Z M 261.10 428.90 L 261.30 430.60 L 261.80 431.90 L 262.80 432.70 L 264.10 433.00 L 265.30 432.70 L 266.30 431.80 L 266.80 430.50 L 267.10 428.80 L 266.80 427.20 L 265.70 425.20 L 264.10 424.60 L 263.10 424.80 L 261.80 425.90 L 261.20 427.10 L 261.00 428.90 Z" fill="#ffffff" fill-rule="nonzero" group-id="1" node-id="164" stroke="none" target-height="12.800018" target-width="11.899994" target-x="258.1" target-y="422.4"></path><path d="M 310.20 424.80 L 306.90 424.80 L 306.90 422.40 L 316.40 422.40 L 316.40 424.80 L 313.00 424.80 L 313.00 434.80 L 310.20 434.80 Z" fill="#ffffff" fill-rule="nonzero" group-id="1" node-id="166" stroke="none" target-height="12.399994" target-width="9.5" target-x="306.9" target-y="422.4"></path><path d="M 320.70 422.40 L 320.90 431.10 L 321.40 432.10 L 322.00 432.60 L 323.00 432.80 L 323.90 432.60 L 324.60 432.10 L 325.00 431.20 L 325.20 422.40 L 328.10 422.40 L 328.10 429.40 L 327.40 432.70 L 325.70 434.40 L 322.90 435.10 L 320.10 434.40 L 318.50 432.70 L 317.90 429.40 L 317.90 422.50 Z" fill="#ffffff" fill-rule="nonzero" group-id="1" node-id="168" stroke="none" target-height="12.700012" target-width="10.200012" target-x="317.9" target-y="422.4"></path><path d="M 372.90 435.00 L 370.00 422.60 L 373.00 422.60 L 374.70 432.10 L 376.50 422.60 L 379.50 422.60 L 381.10 432.00 L 382.90 422.60 L 385.80 422.60 L 382.60 435.00 L 379.60 435.00 L 378.00 425.80 L 376.00 435.00 Z" fill="#ffffff" fill-rule="nonzero" group-id="1" node-id="170" stroke="none" target-height="12.399994" target-width="15.799988" target-x="370" target-y="422.6"></path><path d="M 394.70 429.80 L 390.10 429.80 L 390.10 432.80 L 395.20 432.80 L 395.20 435.00 L 387.30 435.00 L 387.30 422.60 L 395.00 422.60 L 395.00 424.90 L 390.20 424.90 L 390.20 427.50 L 394.70 427.50 Z" fill="#ffffff" fill-rule="nonzero" group-id="1" node-id="172" stroke="none" target-height="12.399994" target-width="7.9000244" target-x="387.3" target-y="422.6"></path><path d="M 244.00 491.60 L 240.70 491.60 L 240.70 489.20 L 250.20 489.20 L 250.20 491.60 L 246.80 491.60 L 246.80 501.70 L 244.00 501.70 Z" fill="#ffffff" fill-rule="nonzero" group-id="1" node-id="174" stroke="none" target-height="12.5" target-width="9.5" target-x="240.7" target-y="489.2"></path><path d="M 254.50 489.20 L 254.50 494.00 L 259.10 494.00 L 259.10 489.20 L 261.90 489.20 L 261.90 501.60 L 259.10 501.60 L 259.10 496.50 L 254.50 496.50 L 254.50 501.60 L 251.70 501.60 L 251.70 489.20 Z" fill="#ffffff" fill-rule="nonzero" group-id="1" node-id="176" stroke="none" target-height="12.399994" target-width="10.199997" target-x="251.7" target-y="489.2"></path><path d="M 306.90 489.20 L 314.40 489.20 L 314.40 491.50 L 309.70 491.50 L 309.70 494.30 L 314.10 494.30 L 314.10 496.60 L 309.70 496.60 L 309.70 501.60 L 306.90 501.60 Z" fill="#ffffff" fill-rule="nonzero" group-id="1" node-id="178" stroke="none" target-height="12.399994" target-width="7.5" target-x="306.9" target-y="489.2"></path><path d="M 316.60 489.30 L 321.70 489.10 L 324.30 490.10 L 325.00 490.80 L 325.40 491.70 L 325.30 493.70 L 324.90 494.60 L 323.30 495.80 L 324.60 497.20 L 325.90 501.60 L 323.10 501.60 L 321.90 497.70 L 321.00 496.80 L 320.20 496.70 L 319.30 496.70 L 319.30 501.60 L 316.60 501.60 Z M 319.40 494.70 L 321.70 494.40 L 322.40 493.80 L 322.70 492.90 L 322.40 492.00 L 321.80 491.40 L 319.40 491.30 Z" fill="#ffffff" fill-rule="nonzero" group-id="1" node-id="180" stroke="none" target-height="12.5" target-width="9.299988" target-x="316.6" target-y="489.1"></path><path d="M 372.90 498.90 L 376.10 499.70 L 377.30 499.50 L 377.90 499.00 L 378.10 498.30 L 377.60 497.40 L 373.50 495.20 L 372.80 494.20 L 372.60 492.90 L 372.70 491.90 L 373.80 490.30 L 375.80 489.30 L 377.30 489.20 L 380.40 489.80 L 379.80 492.10 L 378.50 491.60 L 376.40 491.60 L 375.50 492.20 L 375.60 493.20 L 379.20 495.20 L 380.20 496.00 L 380.80 497.00 L 380.80 499.20 L 379.70 500.80 L 377.60 501.80 L 374.10 501.80 L 372.40 501.20 Z" fill="#ffffff" fill-rule="nonzero" group-id="1" node-id="182" stroke="none" target-height="12.599976" target-width="8.399994" target-x="372.4" target-y="489.2"></path><path d="M 385.70 498.60 L 384.80 501.80 L 381.90 501.80 L 385.70 489.40 L 389.40 489.40 L 393.20 501.80 L 390.20 501.80 L 389.20 498.60 Z M 388.90 496.50 L 387.50 491.50 L 386.10 496.50 Z" fill="#ffffff" fill-rule="nonzero" group-id="1" node-id="184" stroke="none" target-height="12.399994" target-width="11.300018" target-x="381.9" target-y="489.4"></path><path d="M 395.30 507.40 L 399.90 516.70 L 410.20 518.20 L 402.80 525.50 L 404.50 535.80 L 395.30 531.00 L 386.10 535.80 L 387.80 525.50 L 380.40 518.20 L 390.70 516.70 L 395.30 507.40 Z" fill="#ffb31a" fill-rule="nonzero" group-id="1" node-id="186" stroke="none" target-height="28.399994" target-width="29.800018" target-x="380.4" target-y="507.4"></path><path d="M 243.90 571.40 L 247.00 572.20 L 248.20 572.00 L 248.80 571.50 L 249.00 570.90 L 248.50 569.90 L 244.40 567.70 L 243.80 566.70 L 243.50 565.40 L 243.70 564.40 L 244.80 562.80 L 246.80 561.80 L 248.20 561.70 L 251.40 562.30 L 250.80 564.60 L 249.50 564.10 L 247.30 564.10 L 246.50 564.70 L 246.50 565.70 L 250.20 567.70 L 251.20 568.50 L 251.70 569.50 L 251.80 571.70 L 250.70 573.30 L 248.60 574.30 L 245.10 574.30 L 243.40 573.70 Z" fill="#ffffff" fill-rule="nonzero" group-id="1" node-id="188" stroke="none" target-height="12.599976" target-width="8.400009" target-x="243.4" target-y="561.7"></path><path d="M 256.60 561.90 L 256.80 570.60 L 257.20 571.50 L 257.90 572.10 L 258.80 572.20 L 259.70 572.10 L 260.40 571.60 L 260.90 570.60 L 261.10 561.90 L 263.90 561.90 L 263.90 568.90 L 263.20 572.10 L 261.50 573.90 L 258.70 574.50 L 255.90 573.90 L 254.30 572.20 L 253.70 568.80 L 253.70 561.90 Z" fill="#ffffff" fill-rule="nonzero" group-id="1" node-id="190" stroke="none" target-height="12.599976" target-width="10.199997" target-x="253.7" target-y="561.9"></path><path d="M 320.70 567.90 L 320.60 562.80 L 317.70 572.40 L 315.50 572.40 L 313.00 562.80 L 312.60 572.60 L 310.00 572.60 L 310.80 560.20 L 314.50 560.20 L 316.80 568.80 L 319.30 560.20 L 323.00 560.20 L 323.70 572.60 L 321.00 572.60 Z" fill="#ffffff" fill-rule="nonzero" group-id="1" node-id="192" stroke="none" target-height="12.399963" target-width="13.700012" target-x="310" target-y="560.2"></path><path d="M 337.20 566.30 L 337.00 568.30 L 336.40 569.80 L 335.50 571.10 L 334.30 572.00 L 332.90 572.60 L 331.10 572.80 L 329.40 572.60 L 328.00 572.00 L 326.80 571.00 L 325.50 568.30 L 325.30 566.50 L 326.00 563.10 L 326.90 561.90 L 328.10 560.90 L 329.50 560.20 L 331.30 560.00 L 333.10 560.30 L 334.50 560.90 L 336.50 563.10 L 337.20 566.30 Z M 328.20 566.50 L 328.40 568.20 L 329.00 569.40 L 330.00 570.30 L 331.20 570.60 L 332.40 570.30 L 333.40 569.40 L 334.00 568.10 L 334.20 566.40 L 334.00 564.80 L 333.40 563.50 L 332.10 562.40 L 331.20 562.20 L 329.90 562.60 L 329.00 563.40 L 328.40 564.70 L 328.20 566.50 Z" fill="#ffffff" fill-rule="nonzero" group-id="1" node-id="194" stroke="none" target-height="12.799988" target-width="11.900024" target-x="325.3" target-y="560"></path><path d="M 377.40 562.40 L 374.10 562.40 L 374.10 560.00 L 383.70 560.00 L 383.70 562.40 L 380.30 562.40 L 380.30 572.40 L 377.40 572.40 Z" fill="#ffffff" fill-rule="nonzero" group-id="1" node-id="196" stroke="none" target-height="12.400024" target-width="9.600006" target-x="374.1" target-y="560"></path><path d="M 387.90 560.00 L 388.10 568.70 L 388.60 569.70 L 389.30 570.20 L 390.20 570.40 L 391.10 570.20 L 391.80 569.70 L 392.30 568.80 L 392.50 560.00 L 395.30 560.00 L 395.30 567.00 L 394.60 570.20 L 392.90 572.00 L 390.10 572.70 L 387.30 572.00 L 385.70 570.30 L 385.10 567.00 L 385.10 560.00 Z" fill="#ffffff" fill-rule="nonzero" group-id="1" node-id="198" stroke="none" target-height="12.700012" target-width="10.199982" target-x="385.1" target-y="560"></path><path d="M 982.60 682.50 L 945.40 718.50 L 813.40 718.50 L 813.40 548.70 L 982.60 548.70 L 982.60 682.50 Z" fill="#ffb31a" fill-rule="nonzero" group-id="1" node-id="200" stroke="none" target-height="169.79999" target-width="169.19995" target-x="813.4" target-y="548.7"></path><path d="M 813.40 548.70 L 982.60 548.70 L 982.60 567.60 L 813.40 567.60 Z" fill="#ff8f18" fill-rule="nonzero" group-id="1" node-id="202" stroke="none" target-height="18.899963" target-width="169.19995" target-x="813.4" target-y="548.7"></path><path d="M 945.40 718.50 L 982.60 682.50 L 945.40 682.50 L 945.40 718.50 Z" fill="#ff8f18" fill-rule="nonzero" group-id="1" node-id="204" stroke="none" target-height="36" target-width="37.19995" target-x="945.4" target-y="682.5"></path><path d="M 962.00 585.90 L 961.40 587.60 L 959.70 588.40 L 835.90 588.40 L 834.20 587.60 L 833.60 585.90 L 834.20 584.20 L 835.90 583.50 L 959.70 583.50 L 961.40 584.20 L 962.00 585.90 Z" fill="#e6f0ff" fill-rule="nonzero" group-id="1" node-id="206" stroke="none" target-height="4.9000244" target-width="128.40002" target-x="833.6" target-y="583.5"></path><path d="M 962.00 602.20 L 961.40 603.90 L 959.70 604.70 L 835.90 604.70 L 834.90 604.40 L 833.70 603.10 L 833.70 601.30 L 834.90 600.00 L 835.90 599.80 L 959.70 599.80 L 961.40 600.50 L 962.00 602.20 Z" fill="#e6f0ff" fill-rule="nonzero" group-id="1" node-id="208" stroke="none" target-height="4.9000244" target-width="128.29999" target-x="833.7" target-y="599.8"></path><path d="M 962.00 622.60 L 961.40 624.30 L 959.70 625.00 L 835.90 625.00 L 834.20 624.30 L 833.60 622.60 L 834.20 620.90 L 835.90 620.10 L 959.70 620.10 L 961.40 620.90 L 962.00 622.60 Z" fill="#e6f0ff" fill-rule="nonzero" group-id="1" node-id="210" stroke="none" target-height="4.9000244" target-width="128.40002" target-x="833.6" target-y="620.1"></path><path d="M 962.00 638.90 L 961.40 640.50 L 959.70 641.30 L 835.90 641.30 L 834.90 641.10 L 834.20 640.50 L 833.60 638.90 L 834.20 637.20 L 835.90 636.40 L 959.70 636.40 L 961.40 637.20 L 962.00 638.90 Z" fill="#e6f0ff" fill-rule="nonzero" group-id="1" node-id="212" stroke="none" target-height="4.8999634" target-width="128.40002" target-x="833.6" target-y="636.4"></path><path d="M 962.00 659.20 L 961.40 660.90 L 959.70 661.70 L 835.90 661.70 L 834.90 661.40 L 833.70 660.10 L 833.70 658.30 L 834.20 657.50 L 834.90 657.00 L 835.90 656.80 L 959.70 656.80 L 961.40 657.50 L 962.00 659.20 Z" fill="#e6f0ff" fill-rule="nonzero" group-id="1" node-id="214" stroke="none" target-height="4.9000244" target-width="128.29999" target-x="833.7" target-y="656.8"></path><path d="M 962.00 675.50 L 961.40 677.20 L 959.70 678.00 L 835.90 678.00 L 834.90 677.70 L 833.70 676.40 L 833.70 674.60 L 834.20 673.80 L 835.90 673.10 L 959.70 673.10 L 961.40 673.80 L 962.00 675.50 Z" fill="#e6f0ff" fill-rule="nonzero" group-id="1" node-id="216" stroke="none" target-height="4.9000244" target-width="128.29999" target-x="833.7" target-y="673.1"></path><path d="M 182.30 301.60 L 182.80 304.90 L 183.50 306.40 L 185.00 308.30 L 186.90 309.70 L 188.30 310.40 L 191.60 311.00 L 439.20 311.00 L 442.50 310.40 L 443.90 309.70 L 445.80 308.30 L 447.30 306.40 L 448.00 304.90 L 448.60 301.60 L 448.40 249.60 L 447.30 246.60 L 445.80 244.70 L 443.90 243.20 L 440.90 242.10 L 191.60 242.00 L 188.30 242.60 L 186.90 243.30 L 185.00 244.70 L 183.50 246.60 L 182.80 248.10 L 182.30 251.30 Z" fill="#97b8ff" fill-rule="nonzero" group-id="1" node-id="218" stroke="none" target-height="69" target-width="266.3" target-x="182.3" target-y="242"></path><path d="M 386.80 289.90 L 387.30 293.20 L 388.00 294.70 L 389.50 296.60 L 391.40 298.00 L 392.80 298.70 L 396.10 299.30 L 425.90 299.20 L 428.90 298.00 L 430.80 296.60 L 432.30 294.70 L 433.00 293.20 L 433.60 289.90 L 433.40 260.20 L 432.30 257.10 L 430.80 255.20 L 428.90 253.80 L 425.90 252.70 L 424.20 252.50 L 394.40 252.70 L 391.40 253.80 L 389.50 255.20 L 388.00 257.10 L 387.30 258.60 L 386.80 261.90 Z" fill="#ffffff" fill-rule="nonzero" group-id="1" node-id="220" stroke="none" target-height="46.799988" target-width="46.80002" target-x="386.8" target-y="252.5"></path><path d="M 198.30 259.30 L 370.40 259.30 L 370.40 261.50 L 198.30 261.50 Z" fill="#ffffff" fill-rule="nonzero" group-id="1" node-id="222" stroke="none" target-height="2.2000122" target-width="172.09999" target-x="198.3" target-y="259.3"></path><path d="M 198.30 272.70 L 370.40 272.70 L 370.40 274.90 L 198.30 274.90 Z" fill="#ffffff" fill-rule="nonzero" group-id="1" node-id="224" stroke="none" target-height="2.1999817" target-width="172.09999" target-x="198.3" target-y="272.7"></path><path d="M 198.30 286.10 L 370.40 286.10 L 370.40 288.30 L 198.30 288.30 Z" fill="#ffffff" fill-rule="nonzero" group-id="1" node-id="226" stroke="none" target-height="2.1999817" target-width="172.09999" target-x="198.3" target-y="286.1"></path><g node-id="313"><path d="M 391.90 286.50 L 423.20 256.90 L 429.40 263.40 L 398.10 293.00 Z" fill="#ff4650" fill-rule="nonzero" group-id="1,3" node-id="230" stroke="none" target-height="36.100006" target-width="37.5" target-x="391.9" target-y="256.9"></path></g><g node-id="314"><path d="M 392.90 261.90 L 399.60 255.90 L 428.40 288.00 L 421.70 294.00 Z" fill="#ff4650" fill-rule="nonzero" group-id="1,4" node-id="235" stroke="none" target-height="38.100006" target-width="35.5" target-x="392.9" target-y="255.9"></path></g><path d="M 275.40 759.20 L 272.40 757.60 L 269.20 756.20 L 265.60 755.30 L 261.90 754.70 L 254.70 754.50 L 251.00 754.90 L 244.90 756.60 L 242.10 757.90 L 240.00 759.40 L 238.50 761.20 L 238.00 762.30 L 238.00 763.60 L 238.30 765.30 L 239.40 767.70 L 241.00 770.60 L 248.60 781.00 L 251.00 784.00 L 254.80 787.70 L 264.70 795.50 L 276.80 803.40 L 283.40 807.00 L 290.20 810.30 L 297.00 813.10 L 303.40 815.30 L 306.80 815.40 L 308.70 814.80 L 311.50 813.40 L 314.20 811.30 L 316.50 808.70 L 318.30 805.80 L 319.10 803.60 L 319.50 799.30 L 319.10 797.10 L 318.10 795.00 L 316.40 792.80 L 309.90 786.30 L 295.70 774.10 L 288.70 768.60 L 275.40 759.20 Z" fill="#47b0aa" fill-rule="nonzero" group-id="1" node-id="238" stroke="none" target-height="60.900024" target-width="81.5" target-x="238" target-y="754.5"></path><path d="M 356.40 874.60 L 357.90 878.70 L 360.90 884.10 L 364.80 888.10 L 368.80 890.10 L 376.60 891.70 L 381.00 891.50 L 383.00 891.00 L 386.10 889.70 L 389.50 887.50 L 390.20 886.70 L 390.30 886.00 L 389.90 885.30 L 388.60 884.40 L 386.30 883.40 L 377.10 880.50 L 374.20 879.30 L 370.00 876.40 L 367.40 873.50 L 366.20 871.30 L 365.30 868.10 Z" fill="#fbb99d" fill-rule="nonzero" group-id="1" node-id="240" stroke="none" target-height="23.600037" target-width="33.899994" target-x="356.4" target-y="868.1"></path><path d="M 360.20 883.00 L 367.80 885.80 L 371.10 886.60 L 376.80 887.20 L 380.60 886.60 L 382.10 885.70 L 383.30 884.40 L 384.10 882.60 L 385.20 882.60 L 387.60 883.00 L 389.90 884.30 L 390.50 885.30 L 390.70 886.70 L 390.20 888.00 L 389.30 889.20 L 387.90 890.40 L 385.30 891.60 L 382.00 892.50 L 378.60 892.90 L 375.30 892.70 L 367.30 891.30 L 363.50 889.60 L 361.40 887.60 L 360.60 885.80 L 360.20 883.00 Z" fill="#5a7cad" fill-rule="nonzero" group-id="1" node-id="242" stroke="none" target-height="10.300049" target-width="30.5" target-x="360.2" target-y="882.6"></path><path d="M 308.70 808.40 L 296.30 834.20 L 288.90 848.70 L 277.60 868.90 L 271.30 878.10 L 269.10 880.30 L 266.40 882.10 L 262.80 884.00 L 258.70 885.60 L 254.10 886.80 L 247.80 887.30 L 244.50 886.90 L 241.40 886.20 L 238.30 884.80 L 235.30 882.90 L 231.40 879.00 L 227.80 873.10 L 227.10 871.00 L 226.80 868.50 L 226.90 865.60 L 227.50 862.20 L 228.80 857.80 L 230.70 852.80 L 233.40 847.20 L 239.90 836.10 L 244.00 830.00 L 250.50 821.30 L 257.80 812.50 L 265.40 804.20 L 273.20 796.50 L 278.60 791.70 L 288.80 783.80 L 294.10 780.50 L 298.80 778.00 L 303.10 776.30 L 306.60 775.40 L 309.60 775.00 L 312.20 775.20 L 314.70 775.80 L 317.80 777.20 L 320.10 778.70 L 321.60 780.30 L 322.80 782.20 L 323.50 784.10 L 323.60 786.00 L 322.90 790.10 L 320.40 795.30 L 318.40 798.30 L 313.90 803.50 L 308.70 808.40 Z" fill="#4d4d87" fill-rule="nonzero" group-id="1" node-id="244" stroke="none" target-height="112.29999" target-width="96.8" target-x="226.8" target-y="775"></path><path d="M 371.30 869.50 L 366.30 857.70 L 358.80 841.90 L 344.80 815.00 L 335.00 798.10 L 330.40 790.90 L 325.70 784.40 L 321.90 779.70 L 319.20 776.90 L 317.10 775.40 L 315.40 774.80 L 311.90 774.40 L 309.10 774.60 L 306.80 775.30 L 305.00 776.40 L 303.40 777.90 L 302.20 779.80 L 301.30 782.20 L 300.80 785.10 L 300.80 788.90 L 301.30 793.40 L 302.50 798.50 L 304.20 803.40 L 306.50 808.70 L 309.50 814.20 L 323.00 834.80 L 354.90 880.30 L 356.30 880.90 L 359.70 880.40 L 364.80 878.30 L 367.10 876.80 L 369.20 875.00 L 370.70 873.30 L 371.30 872.00 L 371.50 870.70 L 371.30 869.50 Z" fill="#4d4d87" fill-rule="nonzero" group-id="1" node-id="246" stroke="none" target-height="106.5" target-width="70.70001" target-x="300.8" target-y="774.4"></path><path d="M 326.90 889.70 L 329.00 893.70 L 332.90 898.70 L 335.60 901.10 L 337.60 902.50 L 342.30 904.20 L 351.10 905.30 L 355.90 904.80 L 358.10 904.20 L 361.30 902.70 L 364.90 900.40 L 365.60 899.50 L 365.60 898.90 L 365.10 898.20 L 363.60 897.40 L 360.90 896.50 L 350.40 894.30 L 347.10 893.20 L 342.10 890.60 L 339.00 887.90 L 337.30 885.80 L 336.00 882.80 Z" fill="#fbb99d" fill-rule="nonzero" group-id="1" node-id="248" stroke="none" target-height="22.5" target-width="38.700012" target-x="326.9" target-y="882.8"></path><path d="M 332.00 897.80 L 341.30 900.20 L 347.60 900.90 L 350.70 900.90 L 353.50 900.50 L 355.70 899.60 L 357.00 898.70 L 357.80 897.40 L 358.40 895.90 L 359.60 895.90 L 362.30 896.10 L 364.90 897.20 L 365.90 898.50 L 366.00 899.50 L 365.70 900.80 L 364.80 902.10 L 363.30 903.30 L 360.60 904.70 L 357.10 905.80 L 353.40 906.40 L 349.70 906.40 L 340.60 905.50 L 336.30 904.10 L 333.80 902.20 L 332.70 900.50 L 332.00 897.80 Z" fill="#5a7cad" fill-rule="nonzero" group-id="1" node-id="250" stroke="none" target-height="10.5" target-width="34" target-x="332" target-y="895.9"></path><path d="M 202.00 845.90 L 199.30 850.30 L 196.30 857.80 L 195.10 862.60 L 194.50 869.50 L 194.70 873.40 L 195.40 877.20 L 196.60 881.20 L 198.40 885.40 L 200.10 888.30 L 202.40 890.70 L 203.50 891.10 L 204.40 890.90 L 205.30 890.20 L 206.40 888.40 L 207.30 885.60 L 208.60 878.90 L 209.30 871.90 L 209.80 862.00 L 209.30 857.00 L 208.50 854.10 L 207.10 851.00 L 205.80 849.20 L 204.10 847.40 L 202.00 845.90 Z" fill="#3a3a77" fill-rule="nonzero" group-id="1" node-id="252" stroke="none" target-height="45.19995" target-width="15.300003" target-x="194.5" target-y="845.9"></path><path d="M 266.50 757.30 L 264.60 755.90 L 262.00 754.70 L 255.40 752.90 L 247.40 752.00 L 241.00 752.00 L 234.30 752.50 L 227.70 753.50 L 221.50 755.00 L 217.50 756.40 L 210.90 759.60 L 208.00 761.70 L 205.90 764.00 L 204.30 766.40 L 205.10 772.00 L 205.40 783.40 L 206.80 787.50 L 207.30 790.10 L 207.60 798.50 L 206.10 822.00 L 205.40 827.10 L 203.40 834.40 L 200.30 841.80 L 200.30 843.40 L 200.90 845.40 L 202.10 847.90 L 204.00 850.10 L 206.60 852.20 L 212.80 855.40 L 216.80 856.60 L 225.10 858.30 L 229.70 858.70 L 236.70 858.90 L 243.70 858.50 L 248.30 857.80 L 256.80 855.80 L 259.70 854.10 L 261.50 852.50 L 266.30 846.70 L 270.50 839.90 L 272.10 836.60 L 273.60 832.10 L 273.40 830.10 L 270.90 825.90 L 268.20 819.80 L 267.20 814.80 L 267.80 811.50 L 269.50 809.10 L 271.20 807.70 L 277.30 804.10 L 279.00 802.60 L 280.30 800.80 L 281.00 797.60 L 280.20 792.50 L 276.40 779.30 L 271.10 765.40 L 267.70 758.80 L 266.50 757.30 Z" fill="#47b0aa" fill-rule="nonzero" group-id="1" node-id="254" stroke="none" target-height="106.900024" target-width="80.7" target-x="200.3" target-y="752"></path><path d="M 280.60 797.60 L 279.60 799.70 L 276.70 803.20 L 274.90 804.30 L 273.00 805.00 L 271.10 805.30 L 268.20 805.20 L 265.20 804.40 L 259.70 801.90 L 258.80 801.90 L 258.50 803.20 L 261.80 805.10 L 264.90 806.30 L 268.00 807.00 L 271.20 807.20 L 273.30 806.90 L 275.30 806.20 L 277.30 805.10 L 279.00 803.70 L 281.60 800.10 L 282.50 798.00 L 282.50 797.50 L 281.80 796.90 L 280.90 797.20 L 280.60 797.60 Z" fill="#2f7edd" fill-rule="nonzero" group-id="1" node-id="256" stroke="none" target-height="10.299988" target-width="24" target-x="258.5" target-y="796.9"></path><path d="M 252.90 802.30 L 250.60 804.60 L 248.10 806.30 L 245.60 807.50 L 242.80 808.20 L 240.10 808.30 L 237.40 807.90 L 234.70 806.90 L 232.10 805.40 L 229.60 803.20 L 228.70 803.00 L 228.10 803.70 L 228.30 804.60 L 231.20 807.00 L 234.00 808.70 L 237.00 809.70 L 240.10 810.20 L 243.10 810.10 L 246.10 809.30 L 249.00 808.00 L 251.70 806.10 L 254.30 803.50 L 254.60 802.80 L 254.20 802.20 L 253.50 801.90 L 252.90 802.30 Z" fill="#e08b03" fill-rule="nonzero" group-id="1" node-id="258" stroke="none" target-height="8.299988" target-width="26.5" target-x="228.1" target-y="801.9"></path><path d="M 286.00 818.10 L 270.80 844.30 L 261.90 859.00 L 248.30 879.70 L 240.80 889.20 L 238.30 891.60 L 235.30 893.60 L 231.70 895.70 L 227.70 897.30 L 223.40 898.50 L 220.40 898.90 L 217.40 898.80 L 214.30 898.40 L 211.30 897.50 L 208.30 896.00 L 205.30 893.80 L 203.40 891.90 L 199.50 886.60 L 197.60 883.00 L 196.80 880.70 L 196.40 878.10 L 196.50 875.00 L 197.20 871.30 L 198.50 866.70 L 200.60 861.50 L 203.50 855.60 L 210.60 844.00 L 215.00 837.80 L 224.70 825.70 L 230.10 819.70 L 235.60 813.90 L 247.00 803.30 L 252.90 798.30 L 264.20 790.30 L 270.00 786.90 L 275.30 784.40 L 280.10 782.70 L 283.90 781.80 L 287.30 781.50 L 290.30 781.70 L 293.00 782.30 L 296.70 783.90 L 299.20 785.60 L 301.00 787.20 L 302.30 789.30 L 303.00 791.30 L 303.20 793.50 L 302.90 795.70 L 301.30 800.30 L 299.40 803.70 L 297.10 807.00 L 292.00 812.70 L 286.00 818.10 Z" fill="#3a3a77" fill-rule="nonzero" group-id="1" node-id="260" stroke="none" target-height="117.400024" target-width="106.80002" target-x="196.4" target-y="781.5"></path><path d="M 342.60 886.50 L 338.90 874.00 L 333.00 857.00 L 321.70 827.90 L 313.30 809.30 L 309.30 801.30 L 305.20 794.00 L 301.70 788.70 L 299.10 785.50 L 297.00 783.60 L 295.30 782.70 L 291.50 781.70 L 288.30 781.40 L 285.70 781.70 L 283.50 782.40 L 281.60 783.70 L 279.90 785.40 L 278.60 787.50 L 277.60 790.20 L 277.10 793.00 L 276.90 799.60 L 277.40 803.60 L 278.50 808.70 L 280.20 814.20 L 282.60 820.10 L 287.50 829.80 L 294.70 842.80 L 324.10 893.60 L 325.50 894.50 L 329.10 894.70 L 334.70 893.60 L 337.30 892.60 L 339.70 891.40 L 341.50 890.00 L 342.30 888.80 L 342.60 887.70 L 342.60 886.50 Z" fill="#3a3a77" fill-rule="nonzero" group-id="1" node-id="262" stroke="none" target-height="113.29999" target-width="65.70001" target-x="276.9" target-y="781.4"></path><path d="M 230.80 818.00 L 237.20 828.30 L 242.50 836.10 L 245.40 839.70 L 248.20 842.60 L 250.20 844.10 L 252.00 845.00 L 253.70 845.40 L 254.90 845.20 L 257.30 843.50 L 260.60 838.90 L 263.30 833.40 L 265.80 826.70 L 262.90 826.10 L 260.60 824.70 L 257.40 821.50 L 253.60 815.80 L 248.10 803.60 L 246.80 801.90 L 245.70 801.00 L 244.40 800.60 L 243.00 800.70 L 241.60 801.40 L 239.60 803.00 L 235.80 808.10 L 230.80 818.00 Z" fill="#e9b79c" fill-rule="nonzero" group-id="1" node-id="264" stroke="none" target-height="44.80005" target-width="34.999985" target-x="230.8" target-y="800.6"></path><path d="M 256.10 845.40 L 259.80 845.00 L 264.90 843.90 L 276.00 840.40 L 287.70 836.00 L 308.80 827.10 L 301.00 821.90 L 252.90 828.50 L 249.90 834.60 L 249.20 837.20 L 249.00 841.30 L 249.40 842.70 L 250.30 843.80 L 251.50 844.70 L 253.30 845.20 L 256.10 845.40 Z" fill="#e9b79c" fill-rule="nonzero" group-id="1" node-id="266" stroke="none" target-height="23.5" target-width="59.799988" target-x="249" target-y="821.9"></path><path d="M 298.70 821.00 L 299.50 818.00 L 300.70 815.40 L 304.10 809.70 L 304.70 809.50 L 305.70 810.10 L 305.80 811.70 L 305.20 815.40 L 305.80 816.60 L 306.40 817.00 L 308.20 816.80 L 319.10 812.20 L 319.70 812.80 L 319.70 813.60 L 314.70 816.90 L 314.80 817.40 L 315.30 817.50 L 319.50 816.20 L 321.30 816.10 L 321.70 816.40 L 321.40 817.10 L 317.20 819.70 L 317.30 820.50 L 317.80 820.70 L 320.60 820.50 L 321.10 820.80 L 321.00 821.60 L 316.80 823.80 L 316.90 824.40 L 318.60 824.70 L 319.00 825.10 L 318.90 825.70 L 316.10 827.40 L 308.50 829.70 L 301.00 830.90 L 297.10 831.80 L 295.70 831.60 L 294.50 830.80 L 292.80 828.70 L 292.20 826.00 L 292.30 824.30 L 292.60 823.90 L 296.00 823.10 L 297.50 822.30 L 298.70 821.00 Z" fill="#fbb99d" fill-rule="nonzero" group-id="1" node-id="268" stroke="none" target-height="22.299988" target-width="29.5" target-x="292.2" target-y="809.5"></path><path d="M 224.60 772.30 L 219.90 767.80 L 214.80 764.60 L 212.30 763.60 L 207.90 763.20 L 204.30 764.20 L 202.60 765.30 L 201.40 766.50 L 199.70 770.20 L 198.90 773.50 L 198.70 777.10 L 199.00 780.80 L 199.80 784.00 L 203.60 792.20 L 206.20 797.00 L 213.20 807.70 L 221.60 818.50 L 226.30 823.50 L 231.30 828.10 L 236.30 832.00 L 239.30 833.00 L 241.20 833.10 L 244.10 832.60 L 247.10 831.50 L 250.00 829.90 L 252.50 827.80 L 253.90 826.10 L 255.60 822.30 L 255.90 820.20 L 255.70 818.00 L 254.90 815.50 L 251.90 809.60 L 248.40 803.60 L 240.40 792.00 L 232.10 781.40 L 224.60 772.30 Z" fill="#369992" fill-rule="nonzero" group-id="1" node-id="270" stroke="none" target-height="69.89996" target-width="57.199997" target-x="198.7" target-y="763.2"></path><path d="M 338.60 815.20 L 337.40 815.20 L 337.20 814.70 L 337.70 813.20 L 337.20 812.90 L 334.20 815.10 L 333.50 815.40 L 332.80 815.20 L 332.80 814.60 L 334.10 812.30 L 334.20 811.80 L 333.60 811.40 L 329.50 813.80 L 328.80 813.80 L 329.60 811.80 L 332.50 808.80 L 332.60 808.40 L 332.30 808.00 L 327.30 810.80 L 326.40 810.10 L 326.60 809.30 L 335.00 802.50 L 336.00 801.00 L 335.10 799.30 L 330.80 797.80 L 330.30 797.20 L 330.40 796.30 L 330.90 795.90 L 333.50 795.80 L 342.90 811.60 L 340.60 813.80 L 338.60 815.20 Z" fill="#e9b79c" fill-rule="nonzero" group-id="1" node-id="272" stroke="none" target-height="19.600037" target-width="16.5" target-x="326.4" target-y="795.8"></path><path d="M 342.90 811.50 L 345.30 805.50 L 345.80 803.00 L 345.90 799.00 L 344.50 796.50 L 342.80 795.30 L 341.00 794.80 L 339.10 794.60 L 337.40 794.80 L 333.40 796.20 L 335.30 798.50 L 336.90 801.20 L 340.80 809.20 L 341.90 810.80 L 342.90 811.50 Z" fill="#e9b79c" fill-rule="nonzero" group-id="1" node-id="274" stroke="none" target-height="16.900024" target-width="12.5" target-x="333.4" target-y="794.6"></path><path d="M 252.40 699.40 L 248.60 697.60 L 242.50 696.10 L 238.80 695.90 L 233.60 696.70 L 230.80 697.70 L 228.20 699.10 L 225.60 701.10 L 222.90 703.90 L 221.20 706.20 L 218.90 711.20 L 218.30 713.80 L 218.00 717.50 L 218.10 721.10 L 218.90 724.80 L 221.50 732.00 L 225.60 738.50 L 230.60 743.80 L 233.50 745.90 L 236.30 747.50 L 239.30 748.60 L 239.10 746.70 L 234.90 731.20 L 234.20 725.20 L 234.60 723.30 L 235.50 721.60 L 236.70 716.90 L 238.00 713.80 L 241.40 707.70 L 243.60 704.90 L 247.80 701.20 L 250.90 699.50 L 252.40 699.40 Z" fill="#53424d" fill-rule="nonzero" group-id="1" node-id="276" stroke="none" target-height="52.69995" target-width="34.399994" target-x="218" target-y="695.9"></path><path d="M 231.20 727.10 L 244.50 731.80 L 249.30 733.90 L 250.80 735.20 L 250.20 736.70 L 250.00 738.30 L 250.30 750.90 L 251.00 753.40 L 252.40 757.10 L 254.40 760.90 L 255.00 763.20 L 254.80 764.20 L 254.00 765.50 L 252.60 766.70 L 250.90 767.40 L 249.00 767.80 L 242.40 767.60 L 239.70 767.00 L 235.90 765.70 L 232.80 764.20 L 228.10 760.50 L 225.30 757.30 L 224.50 756.00 L 227.10 752.40 L 228.10 750.10 L 230.20 742.50 L 231.00 735.10 L 231.20 727.10 Z" fill="#e9b79c" fill-rule="nonzero" group-id="1" node-id="278" stroke="none" target-height="40.700012" target-width="30.5" target-x="224.5" target-y="727.1"></path><path d="M 250.20 746.20 L 250.00 738.30 L 250.20 736.70 L 250.80 735.20 L 250.40 734.70 L 244.50 731.80 L 231.20 727.10 L 232.50 730.80 L 233.30 734.50 L 233.40 738.40 L 236.80 741.70 L 242.50 746.30 L 250.70 751.60 L 250.20 749.00 L 250.20 746.20 Z" fill="#c58063" fill-rule="nonzero" group-id="1" node-id="280" stroke="none" target-height="24.5" target-width="19.600006" target-x="231.2" target-y="727.1"></path><path d="M 233.20 707.30 L 231.00 700.80 L 227.90 694.90 L 225.90 692.00 L 221.60 687.90 L 217.20 685.80 L 214.80 685.20 L 212.20 685.10 L 206.20 685.80 L 203.70 685.70 L 201.50 685.00 L 197.60 682.70 L 187.20 672.30 L 183.60 669.50 L 180.90 667.90 L 177.90 666.60 L 174.30 665.60 L 170.60 665.00 L 166.20 664.90 L 160.90 665.40 L 158.10 666.00 L 155.40 667.20 L 152.70 668.90 L 150.30 671.00 L 148.10 673.40 L 146.10 676.10 L 144.50 679.10 L 143.30 682.30 L 142.60 685.60 L 142.40 688.90 L 142.70 692.20 L 143.70 695.60 L 144.70 697.50 L 146.30 699.60 L 148.70 701.90 L 154.50 705.80 L 158.40 707.70 L 166.80 710.80 L 171.90 712.10 L 182.50 713.50 L 188.40 713.70 L 194.40 713.50 L 200.60 712.80 L 220.30 709.30 L 224.90 709.00 L 227.70 709.20 L 229.80 709.80 L 230.70 710.60 L 231.20 711.50 L 230.70 713.50 L 229.60 715.00 Z" fill="#53424d" fill-rule="nonzero" group-id="1" node-id="282" stroke="none" target-height="50.099976" target-width="90.8" target-x="142.4" target-y="664.9"></path><path d="M 252.40 701.50 L 254.30 703.90 L 256.70 707.80 L 258.90 712.10 L 261.00 717.20 L 262.70 722.50 L 263.70 728.00 L 264.00 731.70 L 263.80 735.10 L 263.10 738.30 L 262.30 740.60 L 259.60 744.60 L 257.70 746.30 L 256.10 747.20 L 254.20 747.60 L 251.80 747.40 L 246.90 745.90 L 244.10 744.50 L 238.80 740.70 L 233.70 735.70 L 231.50 732.80 L 229.50 729.70 L 228.70 727.90 L 228.10 725.60 L 227.90 720.00 L 228.90 713.70 L 229.90 710.60 L 231.30 707.40 L 234.20 702.60 L 236.10 700.90 L 238.30 699.50 L 240.90 698.30 L 244.70 697.80 L 246.60 698.00 L 248.50 698.70 L 250.40 699.80 L 252.40 701.50 Z" fill="#e9b79c" fill-rule="nonzero" group-id="1" node-id="284" stroke="none" target-height="49.799988" target-width="36.100006" target-x="227.9" target-y="697.8"></path><path d="M 252.30 707.50 L 250.10 712.10 L 248.20 715.10 L 245.90 718.20 L 240.80 723.20 L 235.80 726.10 L 233.00 727.00 L 229.90 727.40 L 226.50 727.30 L 226.10 722.80 L 226.10 719.50 L 226.60 715.90 L 228.50 709.40 L 231.50 704.30 L 233.60 702.00 L 236.20 699.80 L 239.40 697.80 L 241.20 697.50 L 245.80 697.40 L 248.60 697.80 L 251.80 698.70 L 256.00 700.90 L 258.10 702.60 L 259.90 704.50 L 261.60 707.10 L 263.20 710.30 L 264.40 713.70 L 265.30 717.90 L 266.00 723.10 L 263.50 722.80 L 259.90 721.40 L 257.90 720.00 L 256.20 718.10 L 254.50 715.30 L 253.60 713.30 L 252.30 707.50 Z" fill="#53424d" fill-rule="nonzero" group-id="1" node-id="286" stroke="none" target-height="30" target-width="39.899994" target-x="226.1" target-y="697.4"></path><path d="M 236.80 728.20 L 233.30 724.00 L 230.80 722.50 L 229.60 722.40 L 228.30 723.20 L 228.00 724.10 L 227.90 725.60 L 228.20 727.40 L 229.00 729.20 L 231.40 731.70 L 234.20 732.70 L 236.40 732.80 L 237.50 732.50 L 238.20 732.00 L 238.30 731.40 L 237.80 729.70 L 236.80 728.20 Z" fill="#e9b79c" fill-rule="nonzero" group-id="1" node-id="288" stroke="none" target-height="10.399963" target-width="10.400009" target-x="227.9" target-y="722.4"></path><path d="M 820.60 145.50 L 817.20 141.10 L 812.70 137.50 L 807.10 134.80 L 801.00 133.50 L 736.10 133.30 L 736.10 244.30 L 872.70 244.30 L 872.70 145.50 Z" fill="#2d4c7f" fill-rule="nonzero" group-id="1" node-id="290" stroke="none" target-height="111" target-width="136.60004" target-x="736.1" target-y="133.3"></path><path d="M 747.60 107.20 L 861.20 107.20 L 861.20 198.50 L 747.60 198.50 Z" fill="#ffffff" fill-rule="nonzero" group-id="1" node-id="292" stroke="none" target-height="91.3" target-width="113.60004" target-x="747.6" target-y="107.2"></path><path d="M 852.50 121.20 L 756.30 121.20 L 756.00 121.00 L 756.30 120.70 L 852.50 120.70 L 852.80 121.00 L 852.50 121.20 Z" fill="#26395e" fill-rule="nonzero" group-id="1" node-id="294" stroke="none" target-height="0.5" target-width="96.79999" target-x="756" target-y="120.7"></path><path d="M 852.50 131.40 L 756.30 131.40 L 756.00 131.10 L 756.30 130.90 L 852.50 130.90 L 852.80 131.10 L 852.50 131.40 Z" fill="#26395e" fill-rule="nonzero" group-id="1" node-id="296" stroke="none" target-height="0.5" target-width="96.79999" target-x="756" target-y="130.9"></path><path d="M 852.50 141.50 L 756.30 141.50 L 756.00 141.20 L 756.30 141.00 L 852.50 141.00 L 852.80 141.20 L 852.50 141.50 Z" fill="#26395e" fill-rule="nonzero" group-id="1" node-id="298" stroke="none" target-height="0.5" target-width="96.79999" target-x="756" target-y="141"></path><path d="M 852.50 151.60 L 756.30 151.60 L 756.00 151.30 L 756.30 151.10 L 852.50 151.10 L 852.80 151.30 L 852.50 151.60 Z" fill="#26395e" fill-rule="nonzero" group-id="1" node-id="300" stroke="none" target-height="0.5" target-width="96.79999" target-x="756" target-y="151.1"></path><g node-id="315"><path d="M 826.40 160.70 L 820.10 158.50 L 813.90 155.90 L 808.00 152.70 L 802.40 149.10 L 797.10 145.10 L 792.10 140.70 L 787.40 135.90 L 783.20 130.80 L 779.40 125.30 L 776.10 119.60 L 773.30 113.50 L 771.00 107.20 L 747.60 107.20 L 747.60 198.50 L 861.20 198.50 L 861.20 161.80 L 855.40 162.90 L 849.60 163.50 L 843.70 163.50 L 837.90 163.10 L 832.10 162.20 L 826.40 160.70 Z" fill="#b8d0ff" fill-opacity="0.3" fill-rule="nonzero" group-id="1,5" node-id="304" stroke="none" target-height="91.3" target-width="113.60004" target-x="747.6" target-y="107.2"></path></g><path d="M 858.50 174.40 L 750.50 174.40 L 750.20 174.10 L 750.50 173.90 L 858.50 173.90 L 858.70 174.10 L 858.50 174.40 Z" fill="#26395e" fill-rule="nonzero" group-id="1" node-id="307" stroke="none" target-height="0.5" target-width="108.5" target-x="750.2" target-y="173.9"></path><path d="M 874.00 254.10 L 874.00 183.60 L 873.70 180.60 L 873.00 177.90 L 871.80 175.30 L 870.10 173.00 L 868.20 171.10 L 865.90 169.50 L 863.40 168.30 L 860.60 167.50 L 857.70 167.20 L 751.20 167.20 L 748.20 167.50 L 745.40 168.30 L 742.90 169.50 L 740.60 171.10 L 738.70 173.00 L 737.00 175.30 L 735.80 177.90 L 735.10 180.60 L 734.80 183.60 L 734.80 254.10 Z" fill="#f45256" fill-rule="nonzero" group-id="1" node-id="309" stroke="none" target-height="86.90001" target-width="139.20001" target-x="734.8" target-y="167.2"></path></g></svg>